<svg xmlns="http://www.w3.org/2000/svg" width="22" height="22" fill="none"  xmlns:v="https://vecta.io/nano"><path d="M21.5 2.75v16.5c0 .63-.22 1.16-.66 1.59s-.97.66-1.59.66h-3.98v-8.3h2.81l.42-3.19h-3.23V8c0-.5.09-.87.28-1.12.25-.28.67-.42 1.27-.42h1.69V3.64c-.66-.09-1.47-.14-2.44-.14-1.25 0-2.25.38-3 1.13-.72.72-1.08 1.73-1.08 3.05v2.34H9.13v3.19h2.86v8.3H2.75c-.62 0-1.16-.22-1.59-.66S.5 19.88.5 19.25V2.75c0-.62.22-1.16.66-1.59S2.13.5 2.75.5h16.5c.63 0 1.16.22 1.59.66s.66.97.66 1.59z" fill="url(#A)"/><defs><linearGradient id="A" x1="11" y1="-1" x2="11" y2="23" gradientUnits="userSpaceOnUse"><stop stop-color="#bc9cff"/><stop offset="1" stop-color="#8ba4f9"/></linearGradient></defs></svg>