<svg xmlns="http://www.w3.org/2000/svg" width="22" height="22" fill="none"  xmlns:v="https://vecta.io/nano"><path d="M11 5.61c-.97 0-1.87.25-2.72.75a5.4 5.4 0 0 0-1.97 1.97c-.47.81-.7 1.7-.7 2.67a5.5 5.5 0 0 0 .7 2.72c.5.81 1.16 1.47 1.97 1.97a5.5 5.5 0 0 0 2.72.7c.97 0 1.86-.23 2.67-.7a5.4 5.4 0 0 0 1.97-1.97c.5-.84.75-1.75.75-2.72a5 5 0 0 0-.75-2.67c-.47-.84-1.12-1.5-1.97-1.97A5 5 0 0 0 11 5.61zm0 8.91a3.4 3.4 0 0 1-2.48-1.03A3.4 3.4 0 0 1 7.48 11a3.4 3.4 0 0 1 1.03-2.48A3.4 3.4 0 0 1 11 7.48a3.4 3.4 0 0 1 2.48 1.03A3.4 3.4 0 0 1 14.52 11a3.4 3.4 0 0 1-1.03 2.48A3.4 3.4 0 0 1 11 14.52zm6.89-9.14a1.4 1.4 0 0 1-.42.89c-.22.25-.5.38-.84.38s-.64-.12-.89-.37-.37-.55-.37-.89.13-.64.38-.89.55-.37.89-.37.64.13.89.38.38.55.38.89zm3.56 1.27c-.06-.91-.2-1.69-.42-2.34-.28-.78-.72-1.45-1.31-2.02-.56-.59-1.23-1.03-2.02-1.31-.66-.22-1.44-.34-2.34-.37A69.7 69.7 0 0 0 11 .5L6.59.59a8.2 8.2 0 0 0-2.3.38c-.78.28-1.47.72-2.06 1.31A5.4 5.4 0 0 0 .97 4.3C.75 4.95.61 5.73.55 6.64L.5 11l.05 4.41a9.4 9.4 0 0 0 .42 2.3c.28.78.7 1.47 1.27 2.06a5.3 5.3 0 0 0 2.06 1.22c.66.25 1.42.39 2.3.42a72.1 72.1 0 0 0 4.41.09l4.36-.09c.91-.03 1.69-.16 2.34-.37a5.4 5.4 0 0 0 2.02-1.27c.59-.59 1.03-1.28 1.31-2.06a8.2 8.2 0 0 0 .38-2.3A72.1 72.1 0 0 0 21.5 11l-.05-4.36zM19.2 17.19c-.37.94-1.05 1.61-2.02 2.02a9.4 9.4 0 0 1-2.53.38l-4.41.05a68.3 68.3 0 0 1-2.91-.05c-1.16-.06-2-.19-2.53-.37-.94-.37-1.61-1.05-2.02-2.02-.19-.53-.31-1.37-.37-2.53l-.05-2.91v-1.5l.05-2.91a9.4 9.4 0 0 1 .38-2.53c.38-.97 1.05-1.64 2.02-2.02.53-.19 1.38-.31 2.53-.37l2.91-.05h1.5l2.91.05a9.4 9.4 0 0 1 2.53.38c.97.38 1.64 1.05 2.02 2.02a9.4 9.4 0 0 1 .38 2.53l.05 2.91v1.5l-.05 2.91c-.06 1.16-.19 2-.37 2.53z" fill="url(#A)"/><defs><linearGradient id="A" x1="11" y1="-1" x2="11" y2="23" gradientUnits="userSpaceOnUse"><stop stop-color="#bc9cff"/><stop offset="1" stop-color="#8ba4f9"/></linearGradient></defs></svg>
