<svg xmlns="http://www.w3.org/2000/svg" width="24" height="20" fill="none"  xmlns:v="https://vecta.io/nano"><path d="M21.52 5.13a2.8 2.8 0 0 1 .05.61 13.9 13.9 0 0 1-1.64 6.52 13.4 13.4 0 0 1-4.73 5.3c-2.22 1.47-4.77 2.2-7.64 2.2-2.75 0-5.27-.73-7.55-2.2l1.17.05c2.28 0 4.33-.7 6.14-2.11-1.09 0-2.06-.31-2.91-.94a5.1 5.1 0 0 1-1.69-2.44 9 9 0 0 0 .89.05c.44 0 .88-.05 1.31-.14-1.12-.25-2.06-.83-2.81-1.73A4.7 4.7 0 0 1 .98 7.19v-.09c.69.41 1.42.63 2.2.66C2.53 7.28 2 6.69 1.59 5.97a4.7 4.7 0 0 1-.61-2.34c0-.87.23-1.7.7-2.48 1.22 1.53 2.7 2.75 4.45 3.66a13.8 13.8 0 0 0 5.67 1.5c-.06-.37-.09-.75-.09-1.12 0-.88.22-1.69.66-2.44.44-.78 1.03-1.39 1.78-1.83s1.56-.66 2.44-.66c.72 0 1.38.14 1.97.42.63.28 1.17.66 1.64 1.13A10 10 0 0 0 23.34.63a4.9 4.9 0 0 1-2.16 2.72c.94-.12 1.88-.39 2.81-.8a10.8 10.8 0 0 1-2.48 2.58z" fill="url(#A)"/><defs><linearGradient id="A" x1="12" y1="-2" x2="12" y2="22" gradientUnits="userSpaceOnUse"><stop stop-color="#bc9cff"/><stop offset="1" stop-color="#8ba4f9"/></linearGradient></defs></svg>