<svg xmlns="http://www.w3.org/2000/svg" width="54" height="14" fill="#1f2041"  xmlns:v="https://vecta.io/nano"><path d="M10.34.37c.22 0 .4.08.54.23.15.14.23.32.23.54 0 .21-.08.39-.23.54-.14.15-.32.23-.54.23H6.57v10.5c0 .22-.08.41-.23.56-.14.14-.32.21-.54.21-.21 0-.39-.07-.54-.21-.15-.15-.23-.34-.23-.56V1.91H1.27c-.21 0-.39-.08-.54-.23S.5 1.35.5 1.14C.5.92.58.74.73.6c.15-.15.33-.23.54-.23h9.07zm6.57 0c.89 0 1.72.17 2.5.51a6.5 6.5 0 0 1 2.07 1.38c.59.58 1.06 1.27 1.4 2.07a6.2 6.2 0 0 1 .51 2.5c0 1.04-.22 2-.66 2.87a6.5 6.5 0 0 1-1.8 2.2l-.04.04a7.2 7.2 0 0 1-1.84 1 6.4 6.4 0 0 1-2.14.35c-.89 0-1.72-.17-2.5-.51s-1.47-.8-2.06-1.38a6.6 6.6 0 0 1-1.38-2.05c-.34-.78-.51-1.62-.51-2.52a6.2 6.2 0 0 1 .59-2.71 6.4 6.4 0 0 1 1.63-2.15l.07-.07c.01 0 .03-.01.05-.04A6.1 6.1 0 0 1 14.69.78a6.1 6.1 0 0 1 2.22-.4zm0 11.37a4.9 4.9 0 0 0 1.26-.16 5.6 5.6 0 0 0 1.16-.47l-6.14-7.47a4.9 4.9 0 0 0-.87 1.47 4.7 4.7 0 0 0-.31 1.72 4.9 4.9 0 0 0 .38 1.91c.25.6.61 1.12 1.05 1.57a5.4 5.4 0 0 0 1.57 1.05 4.7 4.7 0 0 0 1.91.38zm3.62-1.59a4.8 4.8 0 0 0 .95-1.5c.23-.57.35-1.18.35-1.82a4.9 4.9 0 0 0-.38-1.91 4.8 4.8 0 0 0-1.07-1.56 4.8 4.8 0 0 0-1.56-1.07c-.6-.26-1.23-.39-1.91-.39a4.7 4.7 0 0 0-1.35.19 4.5 4.5 0 0 0-1.21.53l6.18 7.52zm9.82-2.52c-.23 0-.43-.09-.59-.28l-4.5-5.77c-.13-.16-.18-.34-.16-.54.02-.21.12-.38.28-.51s.34-.17.54-.14c.21.02.38.12.51.28l3.92 5L34.18.75c.13-.16.29-.26.49-.28.21-.02.4.03.56.16s.26.3.28.51c.02.2-.03.38-.16.54l-4.41 5.67c-.15.19-.35.28-.6.28zm4.92 5.63c-.05 0-.12-.01-.23-.02-.09-.01-.2-.04-.33-.09a3 3 0 0 1-.42-.23c-.14-.1-.28-.24-.42-.42l-3.52-4.53-3.83 4.93c-.13.16-.3.26-.51.28-.2.02-.38-.03-.54-.16s-.26-.29-.28-.49c-.02-.21.03-.4.16-.56l4.41-5.67c.14-.19.33-.28.58-.28.26 0 .46.09.61.28l4.09 5.25c.06.08.11.13.16.16l.1.05c.2 0 .36.07.49.21.14.13.22.29.23.49.02.21-.04.39-.18.54s-.31.23-.52.25h-.05zm4.46.01c-.22 0-.41-.08-.56-.23s-.23-.34-.23-.56V1.1c0-.21.08-.39.23-.54s.34-.23.56-.23c.21 0 .39.08.54.23s.23.33.23.54v11.37c0 .22-.08.41-.23.56s-.33.23-.54.23zm13.21-.04c-.26 0-.45-.1-.59-.3l-7.3-9.59v9.13c0 .21-.08.39-.23.54-.14.14-.32.21-.52.21s-.37-.07-.53-.21c-.15-.15-.23-.33-.23-.54V1.12c0-.16.05-.31.14-.44s.22-.22.38-.26c.15-.06.3-.06.46-.02s.28.13.38.26l7.28 9.61V1.12c0-.2.07-.37.21-.52.15-.15.33-.23.54-.23s.38.08.52.23c.15.15.23.33.23.52v11.36c0 .16-.05.31-.14.44a.8.8 0 0 1-.37.28l-.24.04z"/></svg>
