<svg xmlns="http://www.w3.org/2000/svg" width="40" height="40" fill="none"  xmlns:v="https://vecta.io/nano"><path d="M20 27.06c-.65 0-1.18-.53-1.18-1.18 0-4.53-3.71-8.24-8.24-8.24-.65 0-1.18-.53-1.18-1.18s.53-1.18 1.18-1.18a10.6 10.6 0 0 1 10.59 10.59c0 .65-.53 1.18-1.18 1.18z" fill="url(#A)"/><path d="M30.59 16.47c0 .65-.53 1.18-1.18 1.18a8.2 8.2 0 0 0-6.76 3.56c-.32-.82-.71-1.59-1.18-2.29a10.5 10.5 0 0 1 7.94-3.62c.65 0 1.18.53 1.18 1.18z" fill="url(#B)"/><path d="M20 40C8.97 40 0 31.03 0 20S8.97 0 20 0s20 8.97 20 20-8.97 20-20 20zm0-37.65C10.26 2.35 2.35 10.26 2.35 20S10.26 37.65 20 37.65 37.65 29.74 37.65 20 29.74 2.35 20 2.35z" fill="url(#C)"/><defs><linearGradient id="A" x1="15.29" y1="15.29" x2="15.29" y2="27.06" gradientUnits="userSpaceOnUse"><stop stop-color="#bc9cff"/><stop offset="1" stop-color="#8ba4f9"/></linearGradient><linearGradient id="B" x1="26.03" y1="15.29" x2="26.03" y2="21.21" gradientUnits="userSpaceOnUse"><stop stop-color="#6fcf97"/><stop offset="1" stop-color="#66d2ea"/></linearGradient><linearGradient id="C" x1="20" y1="0" x2="20" y2="40" gradientUnits="userSpaceOnUse"><stop stop-color="#bc9cff"/><stop offset="1" stop-color="#8ba4f9"/></linearGradient></defs></svg>
