<svg xmlns="http://www.w3.org/2000/svg" width="34" height="43" fill="none"  xmlns:v="https://vecta.io/nano"><path d="M16.44 36.97c2.69 0 4.94-.91 6.75-2.72A9.3 9.3 0 0 0 26 27.41a29.2 29.2 0 0 0-1.12-8.06c-1.94 2.56-5.03 4.28-9.28 5.16-3.75.81-5.63 2.88-5.63 6.19 0 1.75.63 3.25 1.88 4.5a6.4 6.4 0 0 0 4.59 1.78zM20 .31c4 3.25 7.16 7.22 9.47 11.91 2.38 4.63 3.56 9.56 3.56 14.81 0 4.38-1.56 8.13-4.69 11.25S21.44 42.97 17 42.97s-8.22-1.56-11.34-4.69S.97 31.41.97 27.03c0-6.75 2.16-12.69 6.47-17.81v.75a7.3 7.3 0 0 0 2.06 5.25c1.38 1.44 3.09 2.16 5.16 2.16 2 0 3.62-.69 4.87-2.06 1.31-1.44 1.97-3.22 1.97-5.34 0-1.25-.12-2.69-.37-4.31a38.2 38.2 0 0 0-.75-3.84L20 .31z" fill="url(#A)"/><defs><linearGradient id="A" x1="17" y1="-1" x2="17" y2="47" gradientUnits="userSpaceOnUse"><stop stop-color="#bc9cff"/><stop offset="1" stop-color="#8ba4f9"/></linearGradient></defs></svg>
